<svg xmlns="http://www.w3.org/2000/svg" width="2200" height="1650" viewBox="0 0 2200 1650" role="img" aria-labelledby="title desc">
  <title id="title">UPS PensionsGo Comprehensive System Architecture</title>
  <desc id="desc">Comprehensive architecture diagram for UPS PensionsGo showing actors, frontend pages and PWA shell, PHP API layer, shared runtime services, domain services, database stores, filesystem storage, background workers, documentation outputs, and future integration points.</desc>
  <defs>
    <style>
      .bg { fill: #fbfaf7; }
      .title { font: 700 36px Arial, sans-serif; fill: #6d1116; }
      .subtitle { font: 400 17px Arial, sans-serif; fill: #3f3f46; }
      .layer { fill: #ffffff; stroke: #d8cfbd; stroke-width: 1.5; rx: 18; }
      .layer-alt { fill: #fffdf8; stroke: #d8cfbd; stroke-width: 1.5; rx: 18; }
      .layer-label { font: 700 18px Arial, sans-serif; fill: #6d1116; }
      .box { fill: #ffffff; stroke: #b8a98d; stroke-width: 1.35; rx: 10; }
      .actor { fill: #f8f1df; stroke: #bf952d; stroke-width: 1.5; rx: 10; }
      .client { fill: #eef6ff; stroke: #47769c; stroke-width: 1.4; rx: 10; }
      .security { fill: #f8e9eb; stroke: #9a2930; stroke-width: 1.5; rx: 10; }
      .api { fill: #fff7ed; stroke: #c2410c; stroke-width: 1.4; rx: 10; }
      .service { fill: #f5f3ff; stroke: #6d5bd0; stroke-width: 1.4; rx: 10; }
      .data { fill: #ecfeff; stroke: #0f766e; stroke-width: 1.5; rx: 10; }
      .store { fill: #eef5ed; stroke: #6f9568; stroke-width: 1.5; rx: 10; }
      .external { fill: #f6f6f6; stroke: #737373; stroke-width: 1.4; stroke-dasharray: 7 5; rx: 10; }
      .doc { fill: #fdf2f8; stroke: #be185d; stroke-width: 1.35; rx: 10; }
      .box-title { font: 700 14px Arial, sans-serif; fill: #27272a; }
      .box-text { font: 400 12px Arial, sans-serif; fill: #3f3f46; }
      .small { font: 400 11px Arial, sans-serif; fill: #52525b; }
      .pill { fill: #6d1116; rx: 13; }
      .pill-text { font: 700 11px Arial, sans-serif; fill: #fff; }
      .arrow { stroke: #6d1116; stroke-width: 2.1; fill: none; marker-end: url(#arrowhead); }
      .arrow-muted { stroke: #70695f; stroke-width: 1.7; fill: none; marker-end: url(#arrow-muted); }
      .arrow-dash { stroke: #737373; stroke-width: 1.6; stroke-dasharray: 7 5; fill: none; marker-end: url(#arrow-grey); }
    </style>
    <marker id="arrowhead" markerWidth="12" markerHeight="8" refX="10" refY="4" orient="auto">
      <path d="M0,0 L12,4 L0,8 z" fill="#6d1116" />
    </marker>
    <marker id="arrow-muted" markerWidth="12" markerHeight="8" refX="10" refY="4" orient="auto">
      <path d="M0,0 L12,4 L0,8 z" fill="#70695f" />
    </marker>
    <marker id="arrow-grey" markerWidth="12" markerHeight="8" refX="10" refY="4" orient="auto">
      <path d="M0,0 L12,4 L0,8 z" fill="#737373" />
    </marker>
    <filter id="shadow" x="-8%" y="-8%" width="116%" height="124%">
      <feDropShadow dx="0" dy="4" stdDeviation="4" flood-color="#000000" flood-opacity="0.10" />
    </filter>
  </defs>

  <rect class="bg" width="2200" height="1650" />
  <text class="title" x="1100" y="52" text-anchor="middle">UPS PensionsGo Comprehensive System Architecture</text>
  <text class="subtitle" x="1100" y="82" text-anchor="middle">Current repository architecture: 41 HTML pages, 50 JavaScript files, 264 PHP API endpoints, 83 database tables, PWA shell, background workers, uploads, exports, backups, and governance tooling</text>

  <rect class="layer" x="60" y="110" width="2080" height="122" filter="url(#shadow)" />
  <text class="layer-label" x="86" y="144">1. Access Channels and Users</text>
  <rect class="actor" x="95" y="162" width="245" height="48" />
  <text class="box-title" x="217.5" y="190" text-anchor="middle">Public Users</text>
  <rect class="actor" x="370" y="162" width="245" height="48" />
  <text class="box-title" x="492.5" y="190" text-anchor="middle">Pensioners</text>
  <rect class="actor" x="645" y="162" width="245" height="48" />
  <text class="box-title" x="767.5" y="190" text-anchor="middle">Operational Staff</text>
  <rect class="actor" x="920" y="162" width="245" height="48" />
  <text class="box-title" x="1042.5" y="190" text-anchor="middle">Supervisors</text>
  <rect class="actor" x="1195" y="162" width="245" height="48" />
  <text class="box-title" x="1317.5" y="190" text-anchor="middle">Administrators</text>
  <rect class="actor" x="1470" y="162" width="245" height="48" />
  <text class="box-title" x="1592.5" y="190" text-anchor="middle">Security Admin</text>
  <rect class="external" x="1745" y="162" width="330" height="48" />
  <text class="box-title" x="1910" y="183" text-anchor="middle">Source Files and Future Systems</text>
  <text class="small" x="1910" y="201" text-anchor="middle">Payroll, suspensions, HR, ID, payment, SMS/email</text>

  <path class="arrow" d="M1100 232 L1100 270" />

  <rect class="layer-alt" x="60" y="270" width="2080" height="190" filter="url(#shadow)" />
  <text class="layer-label" x="86" y="304">2. Browser, Frontend, and PWA Runtime</text>
  <rect class="client" x="95" y="326" width="310" height="92" />
  <text class="box-title" x="250" y="350" text-anchor="middle">Public and Entry Pages</text>
  <text class="box-text" x="118" y="374">index, about, FAQ, feedback, terms,</text>
  <text class="box-text" x="118" y="392">login, offline, public podcast</text>
  <rect class="client" x="430" y="326" width="310" height="92" />
  <text class="box-title" x="585" y="350" text-anchor="middle">Operational Workspaces</text>
  <text class="box-text" x="453" y="374">dashboard, staff due, claims, tasks,</text>
  <text class="box-text" x="453" y="392">reports, payroll, budgeting</text>
  <rect class="client" x="765" y="326" width="310" height="92" />
  <text class="box-title" x="920" y="350" text-anchor="middle">Registry and Pensioner UI</text>
  <text class="box-text" x="788" y="374">registry, file tracking, file movement,</text>
  <text class="box-text" x="788" y="392">life certificates, pensioner board/lookup</text>
  <rect class="client" x="1100" y="326" width="310" height="92" />
  <text class="box-title" x="1255" y="350" text-anchor="middle">Admin and Identity UI</text>
  <text class="box-text" x="1123" y="374">admin dashboard, users, register/edit,</text>
  <text class="box-text" x="1123" y="392">profile, messaging, podcast admin</text>
  <rect class="client" x="1435" y="326" width="310" height="92" />
  <text class="box-title" x="1590" y="350" text-anchor="middle">Shared JavaScript Runtime</text>
  <text class="box-text" x="1458" y="374">main.js, api/auth helpers, headers,</text>
  <text class="box-text" x="1458" y="392">footer, UI feedback, live chat, selectors</text>
  <rect class="client" x="1770" y="326" width="305" height="92" />
  <text class="box-title" x="1922.5" y="350" text-anchor="middle">PWA Shell</text>
  <text class="box-text" x="1793" y="374">manifest, service worker, offline page,</text>
  <text class="box-text" x="1793" y="392">icons, version checks, cache lifecycle</text>
  <rect class="box" x="395" y="428" width="1410" height="20" />
  <text class="small" x="1100" y="442" text-anchor="middle">Frontend communicates with backend/api/*.php using Fetch/AJAX JSON and FormData over same-origin HTTP/HTTPS, PHP session cookies, CSRF tokens, and device headers.</text>

  <path class="arrow" d="M1100 460 L1100 498" />

  <rect class="layer" x="60" y="498" width="2080" height="176" filter="url(#shadow)" />
  <text class="layer-label" x="86" y="532">3. Server Bootstrap, Security Boundary, and Shared Runtime</text>
  <rect class="security" x="95" y="552" width="310" height="82" />
  <text class="box-title" x="250" y="576" text-anchor="middle">backend/config.php</text>
  <text class="box-text" x="118" y="600">DB connection, settings, headers, RBAC,</text>
  <text class="box-text" x="118" y="618">logging, schema guards, utilities</text>
  <rect class="security" x="430" y="552" width="310" height="82" />
  <text class="box-title" x="585" y="576" text-anchor="middle">Authentication and Sessions</text>
  <text class="box-text" x="453" y="600">login/logout, SessionManager, TimeoutManager,</text>
  <text class="box-text" x="453" y="618">active sessions, keep-alive, cleanup</text>
  <rect class="security" x="765" y="552" width="310" height="82" />
  <text class="box-title" x="920" y="576" text-anchor="middle">Request and Upload Hardening</text>
  <text class="box-text" x="788" y="600">CSRF, origin validation, admin reauth,</text>
  <text class="box-text" x="788" y="618">file rules, scan logs, attachment limits</text>
  <rect class="service" x="1100" y="552" width="310" height="82" />
  <text class="box-title" x="1255" y="576" text-anchor="middle">Runtime Admin Tools</text>
  <text class="box-text" x="1123" y="600">analytics digests, message snapshots,</text>
  <text class="box-text" x="1123" y="618">storage scans, cleanup, exports</text>
  <rect class="service" x="1435" y="552" width="310" height="82" />
  <text class="box-title" x="1590" y="576" text-anchor="middle">Health and Versioning</text>
  <text class="box-text" x="1458" y="600">system health diagnostics, incidents,</text>
  <text class="box-text" x="1458" y="618">app_version.json, version APIs</text>
  <rect class="service" x="1770" y="552" width="305" height="82" />
  <text class="box-title" x="1922.5" y="576" text-anchor="middle">Shared Domain Helpers</text>
  <text class="box-text" x="1793" y="600">task workflow, imports, registry docs,</text>
  <text class="box-text" x="1793" y="618">gratuity, live chat, PDF generation</text>

  <path class="arrow" d="M1100 674 L1100 712" />

  <rect class="layer-alt" x="60" y="712" width="2080" height="384" filter="url(#shadow)" />
  <text class="layer-label" x="86" y="746">4. PHP API Surface by Business Domain</text>
  <rect class="api" x="95" y="770" width="310" height="92" />
  <text class="box-title" x="250" y="794" text-anchor="middle">Access, Users, Roles</text>
  <text class="box-text" x="118" y="818">login, CSRF, current permissions, users,</text>
  <text class="box-text" x="118" y="836">roles, overrides, active sessions</text>
  <rect class="api" x="430" y="770" width="310" height="92" />
  <text class="box-title" x="585" y="794" text-anchor="middle">Intake, Applications, Staff Due</text>
  <text class="box-text" x="453" y="818">staff-due capture/import/delete queue,</text>
  <text class="box-text" x="453" y="836">application forms, status, submission queue</text>
  <rect class="api" x="765" y="770" width="310" height="92" />
  <text class="box-title" x="920" y="794" text-anchor="middle">Workflow and Tasks</text>
  <text class="box-text" x="788" y="818">assign, delegate, comments, alerts,</text>
  <text class="box-text" x="788" y="836">completion queue, workflow logs</text>
  <rect class="api" x="1100" y="770" width="310" height="92" />
  <text class="box-title" x="1255" y="794" text-anchor="middle">Registry and Documents</text>
  <text class="box-text" x="1123" y="818">file registry, document upload/view,</text>
  <text class="box-text" x="1123" y="836">delete requests, recycle bin, box allocation</text>
  <rect class="api" x="1435" y="770" width="310" height="92" />
  <text class="box-title" x="1590" y="794" text-anchor="middle">File Movement and Certificates</text>
  <text class="box-text" x="1458" y="818">movement, return, logs, summaries,</text>
  <text class="box-text" x="1458" y="836">life-certificate dashboards and exports</text>
  <rect class="api" x="1770" y="770" width="305" height="92" />
  <text class="box-title" x="1922.5" y="794" text-anchor="middle">Payroll and Finance</text>
  <text class="box-text" x="1793" y="818">payroll cycles/registers, replacement,</text>
  <text class="box-text" x="1793" y="836">suspensions, gratuity, retained payments</text>

  <rect class="api" x="95" y="890" width="310" height="92" />
  <text class="box-title" x="250" y="914" text-anchor="middle">Claims and Arrears</text>
  <text class="box-text" x="118" y="938">claims dashboard, arrears ledger/payments,</text>
  <text class="box-text" x="118" y="956">accountability, budget, custom exports</text>
  <rect class="api" x="430" y="890" width="310" height="92" />
  <text class="box-title" x="585" y="914" text-anchor="middle">Pensioner Services</text>
  <text class="box-text" x="453" y="938">dashboard, lookup, accounts, profile,</text>
  <text class="box-text" x="453" y="956">visibility, password reset, death reports</text>
  <rect class="api" x="765" y="890" width="310" height="92" />
  <text class="box-title" x="920" y="914" text-anchor="middle">Messaging and Live Chat</text>
  <text class="box-text" x="788" y="938">messages, broadcasts, attachments, unread,</text>
  <text class="box-text" x="788" y="956">live chat, groups, calls, presence</text>
  <rect class="api" x="1100" y="890" width="310" height="92" />
  <text class="box-title" x="1255" y="914" text-anchor="middle">Content and Feedback</text>
  <text class="box-text" x="1123" y="938">FAQ, terms, feedback workflow, podcasts,</text>
  <text class="box-text" x="1123" y="956">public feeds, view tracking</text>
  <rect class="api" x="1435" y="890" width="310" height="92" />
  <text class="box-title" x="1590" y="914" text-anchor="middle">Data Management</text>
  <text class="box-text" x="1458" y="938">imports, templates, exports, artifacts,</text>
  <text class="box-text" x="1458" y="956">cleanup, dashboard data export</text>
  <rect class="api" x="1770" y="890" width="305" height="92" />
  <text class="box-title" x="1922.5" y="914" text-anchor="middle">Administration and Settings</text>
  <text class="box-text" x="1793" y="938">settings, public settings, geolocation,</text>
  <text class="box-text" x="1793" y="956">banks, titles, units, districts, versions</text>

  <rect class="api" x="95" y="1010" width="310" height="56" />
  <text class="box-title" x="250" y="1033" text-anchor="middle">Diagnostics and Backups</text>
  <text class="box-text" x="118" y="1052">health, logs, storage, backup/restore</text>
  <rect class="api" x="430" y="1010" width="310" height="56" />
  <text class="box-title" x="585" y="1033" text-anchor="middle">Notification Operations</text>
  <text class="box-text" x="453" y="1052">queue, digests, sound library, clear queue</text>
  <rect class="api" x="765" y="1010" width="310" height="56" />
  <text class="box-title" x="920" y="1033" text-anchor="middle">Operational Reports</text>
  <text class="box-text" x="788" y="1052">claims, dashboards, lifecycle, alerts, user logs</text>
  <rect class="api" x="1100" y="1010" width="310" height="56" />
  <text class="box-title" x="1255" y="1033" text-anchor="middle">File Response Endpoints</text>
  <text class="box-text" x="1123" y="1052">view/download documents, artifacts, templates</text>
  <rect class="api" x="1435" y="1010" width="640" height="56" />
  <text class="box-title" x="1755" y="1033" text-anchor="middle">264 focused PHP endpoints under backend/api/</text>
  <text class="box-text" x="1460" y="1052">Each endpoint enters through shared bootstrap services, checks authorization, reads/writes domain stores, and returns JSON or file responses.</text>

  <path class="arrow" d="M1100 1096 L1100 1134" />

  <rect class="layer" x="60" y="1134" width="2080" height="228" filter="url(#shadow)" />
  <text class="layer-label" x="86" y="1168">5. Persistence, Filesystem Storage, and Background Execution</text>
  <rect class="data" x="95" y="1190" width="310" height="120" />
  <text class="box-title" x="250" y="1214" text-anchor="middle">Core Pension Database</text>
  <text class="box-text" x="118" y="1238">MySQL/MariaDB with 83 tables:</text>
  <text class="box-text" x="118" y="1256">users, staff due, registry, tasks,</text>
  <text class="box-text" x="118" y="1274">workflow, applications, certificates</text>
  <rect class="data" x="430" y="1190" width="310" height="120" />
  <text class="box-title" x="585" y="1214" text-anchor="middle">Financial and Service Stores</text>
  <text class="box-text" x="453" y="1238">payroll cycles, payroll entries, arrears,</text>
  <text class="box-text" x="453" y="1256">payments, allocations, claims, budget,</text>
  <text class="box-text" x="453" y="1274">suspensions, gratuity, retained items</text>
  <rect class="data" x="765" y="1190" width="310" height="120" />
  <text class="box-title" x="920" y="1214" text-anchor="middle">Governance and Observability</text>
  <text class="box-text" x="788" y="1238">roles, permissions, sessions, settings,</text>
  <text class="box-text" x="788" y="1256">audit/user/system logs, analytics,</text>
  <text class="box-text" x="788" y="1274">imports, exports, backups, geolocation</text>
  <rect class="store" x="1100" y="1190" width="310" height="120" />
  <text class="box-title" x="1255" y="1214" text-anchor="middle">Runtime File Storage</text>
  <text class="box-text" x="1123" y="1238">backend/uploads: documents, profiles,</text>
  <text class="box-text" x="1123" y="1256">messages, live_chat, payroll, suspensions,</text>
  <text class="box-text" x="1123" y="1274">accountability files and audio sounds</text>
  <rect class="store" x="1435" y="1190" width="310" height="120" />
  <text class="box-title" x="1590" y="1214" text-anchor="middle">Generated Artifacts</text>
  <text class="box-text" x="1458" y="1238">backend/exports, backend/backups,</text>
  <text class="box-text" x="1458" y="1256">backend/cache, backend/logs, logs, temp,</text>
  <text class="box-text" x="1458" y="1274">downloadable templates and reports</text>
  <rect class="service" x="1770" y="1190" width="305" height="120" />
  <text class="box-title" x="1922.5" y="1214" text-anchor="middle">Background and Scheduled Work</text>
  <text class="box-text" x="1793" y="1238">notification queue worker, digest jobs,</text>
  <text class="box-text" x="1793" y="1256">snapshot/export/cleanup routines,</text>
  <text class="box-text" x="1793" y="1274">admin-triggered maintenance jobs</text>
  <rect class="box" x="395" y="1322" width="1410" height="20" />
  <text class="small" x="1100" y="1336" text-anchor="middle">Data anchors: userId, regNo, fileNo, registry id, task id, payroll cycle id, arrears ledger/payment ids, message id, and audit/session/log ids.</text>

  <path class="arrow" d="M1100 1362 L1100 1400" />

  <rect class="layer-alt" x="60" y="1400" width="2080" height="152" filter="url(#shadow)" />
  <text class="layer-label" x="86" y="1434">6. Documentation, Governance Outputs, and Extension Points</text>
  <rect class="doc" x="95" y="1454" width="390" height="62" />
  <text class="box-title" x="290" y="1477" text-anchor="middle">Documentation Suite</text>
  <text class="box-text" x="118" y="1498">system docs, technical docs, user/admin manual, role manuals</text>
  <rect class="doc" x="515" y="1454" width="390" height="62" />
  <text class="box-title" x="710" y="1477" text-anchor="middle">Architecture and Data Models</text>
  <text class="box-text" x="538" y="1498">ERDs, domain ERDs, DFDs, architecture diagrams, handouts</text>
  <rect class="doc" x="935" y="1454" width="390" height="62" />
  <text class="box-title" x="1130" y="1477" text-anchor="middle">Generated Stakeholder Outputs</text>
  <text class="box-text" x="958" y="1498">DOCX, PDF, PPTX, reports, exports, templates, backups</text>
  <rect class="external" x="1355" y="1454" width="720" height="62" />
  <text class="box-title" x="1715" y="1477" text-anchor="middle">Future Integration Candidates</text>
  <text class="box-text" x="1378" y="1498">National ID, HR systems, government payment platforms, SMS/email gateways, document repositories, GovHub/API exchange</text>

  <path class="arrow-muted" d="M1910 210 C2040 330 2040 780 1922 818" />
  <path class="arrow-muted" d="M1922 1310 C2060 1360 2060 1460 1715 1454" />
  <path class="arrow-muted" d="M1590 634 C1650 704 1680 860 1590 890" />
  <path class="arrow-muted" d="M250 634 C190 716 190 930 250 1010" />
  <path class="arrow-dash" d="M1715 1454 C1750 1360 1780 1300 1922 1310" />

  <rect class="pill" x="60" y="1592" width="250" height="24" />
  <text class="pill-text" x="185" y="1608" text-anchor="middle">Comprehensive Architecture Diagram</text>
  <text class="small" x="2140" y="1608" text-anchor="end">Source basis: repository structure and documentation snapshot on 2026-05-28</text>
</svg>
